<svg width="48" height="48" viewBox="0 0 48 48" fill="none" xmlns="http://www.w3.org/2000/svg">
  <defs>
    <linearGradient id="main" x1="0%" y1="0%" x2="100%" y2="100%">
      <stop offset="0%" stop-color="#0EA5E9"/>
      <stop offset="50%" stop-color="#3B82F6"/>
      <stop offset="100%" stop-color="#6366F1"/>
    </linearGradient>
    <linearGradient id="buddy" x1="0%" y1="0%" x2="100%" y2="100%">
      <stop offset="0%" stop-color="#10B981"/>
      <stop offset="100%" stop-color="#06B6D4"/>
    </linearGradient>
  </defs>
  <!-- Main Shield -->
  <path d="M20 6L6 11V20C6 29.5 12 38 20 42C28 38 34 29.5 34 20V11L20 6Z" fill="url(#main)"/>
  <!-- Buddy Shield -->
  <path d="M38 14L28 17.5V24C28 31 33 37 38 40C43 37 48 31 48 24V17.5L38 14Z" fill="url(#buddy)"/>
  <!-- Checkmarks -->
  <path d="M14 20L18 24L26 16" stroke="white" stroke-width="2.5" stroke-linecap="round" stroke-linejoin="round"/>
  <path d="M34 22L36.5 24.5L41 20" stroke="white" stroke-width="2" stroke-linecap="round" stroke-linejoin="round"/>
</svg>